<svg id="logo" version="1.1" xmlns="http://www.w3.org/2000/svg" xmlns:xlink="http://www.w3.org/1999/xlink" x="0px" y="0px" width="70px" height="70px" viewBox="0 0 70 70" enable-background="new 0 0 70 70" xml:space="preserve"><g><path fill-rule="evenodd" clip-rule="evenodd" fill="#0099FF" d="M44.467,0H25.533C11.432,0,0,11.189,0,24.994v20.013
						C0,58.811,11.432,70,25.533,70h18.935C58.565,70,70,58.811,70,45.007V24.994C70,11.19,58.565,0,44.467,0z M59.156,49.192
						l-5.014,2.822l-5.01-2.822V37.927l-9.12,5.063l0.002,0.001v16.933L35,62.748l-5.014-2.824V42.991l-9.118-5.064v11.266l-5.011,2.822
						l-5.013-2.822V22.08L35,34.399L59.156,22.08V49.192z M35,6.956c6.295,0,11.398,4.995,11.398,11.158S41.295,29.272,35,29.272
						c-6.296,0-11.4-4.995-11.4-11.158S28.704,6.956,35,6.956z"></path><path fill-rule="evenodd" clip-rule="evenodd" fill="#0099FF" d="M34.679,26.246v-7.819h-3.92
						C30.853,21.572,32.357,24.375,34.679,26.246z"></path><path fill-rule="evenodd" clip-rule="evenodd" fill="#0099FF" d="M39.241,18.427h-3.919v7.817
						C37.641,24.373,39.147,21.572,39.241,18.427z"></path><path fill-rule="evenodd" clip-rule="evenodd" fill="#0099FF" d="M35.321,9.983v7.817h3.919
						C39.147,14.655,37.641,11.854,35.321,9.983z"></path><path fill-rule="evenodd" clip-rule="evenodd" fill="#0099FF" d="M39.882,17.801h3.835c-0.161-4.281-3.543-7.772-7.845-8.192
						C38.256,11.594,39.788,14.52,39.882,17.801z"></path><path fill-rule="evenodd" clip-rule="evenodd" fill="#0099FF" d="M35.872,26.619c4.303-0.419,7.685-3.909,7.846-8.192h-3.835
						C39.788,21.709,38.256,24.635,35.872,26.619z"></path><path fill-rule="evenodd" clip-rule="evenodd" fill="#0099FF" d="M30.118,18.427h-3.835c0.16,4.284,3.543,7.773,7.846,8.192
						C31.744,24.635,30.21,21.709,30.118,18.427z"></path><path fill-rule="evenodd" clip-rule="evenodd" fill="#0099FF" d="M30.759,17.801h3.92V9.983
						C32.357,11.854,30.853,14.655,30.759,17.801z"></path><path fill-rule="evenodd" clip-rule="evenodd" fill="#0099FF" d="M34.131,9.608c-4.303,0.418-7.688,3.909-7.849,8.192h3.835
						C30.21,14.52,31.746,11.594,34.131,9.608z"></path></g></svg>
